<svg xmlns="http://www.w3.org/2000/svg" viewBox="0 0 24 24" fill="#000"><g style="transform: rotateY(360deg); transform-origin: 11.9996px 11.9991px 0px;" transform-origin="11.999549865722656px 11.999126434326172px"><path d="m 11.870,2.0000 c -5.5927,0 -9.8709,4.354 -9.8709,10.0908 0,4.586 2.814,8.511 6.8346,9.892 0.516,0.09 0.6975,-0.231 0.6975,-0.500 0,-0.256 -0.012,-1.670 -0.012,-2.53 0,0 -2.8225,0.620 -3.4153,-1.232 0,0 -0.4596,-1.203 -1.1209,-1.513 0,0 -0.9233,-0.649 0.064,-0.63 0,0 1.0040,0.08 1.5564,1.066 0.8830,1.596 2.3629,1.137 2.9395,0.864 0.092,-0.661 0.354,-1.120 0.6451,-1.393 -2.2540,-0.256 -4.5282,-0.591 -4.5282,-4.569 0,-1.137 0.3064,-1.707 0.9516,-2.43 C 6.5080,8.823 6.1653,7.7153 6.717,6.2844 7.5604,6.0156 9.5,7.4010 9.5,7.4010 10.306,7.169 11.173,7.049 12.032,7.049 c 0.858,0 1.725,0.119 2.532,0.3515 0,0 1.939,-1.3895 2.782,-1.1166 0.552,1.435 0.209,2.5392 0.104,2.8080 0.645,0.7319 1.040,1.302 1.040,2.43 0,3.990 -2.375,4.309 -4.629,4.569 0.370,0.326 0.685,0.947 0.685,1.918 0,1.393 -0.0,3.118 -0.0,3.457 0,0.268 0.185,0.595 0.697,0.500 C 19.266,20.601 22,16.677 22,12.090 22,6.3547 17.46,2.0000 11.870,2.0000 Z" opacity="1"></path> <path d="m 5.4838,15.928 c -0.028,0.05 0.012,0.119 0.092,0.161 0.064,0.04 0.1451,0.02 0.1733,-0.02 0.028,-0.05 -0.012,-0.119 -0.092,-0.161 -0.080,-0.02 -0.1451,-0.01 -0.1733,0.02 z" style="transform: none; transform-origin: 5.61645px 16.0042px 0px;" transform-origin="5.61644983291626px 16.004199981689453px"></path> <path d="m 5.9193,16.263 c -0.052,0.04 -0.040,0.136 0.028,0.215 0.064,0.06 0.1572,0.09 0.2096,0.04 0.052,-0.04 0.040,-0.136 -0.028,-0.215 -0.064,-0.06 -0.1572,-0.09 -0.2096,-0.04 z" style="transform: none; transform-origin: 6.0381px 16.3905px 0px;" transform-origin="6.038100004196167px 16.390501022338867px"></path> <path d="m 6.3306,16.792 c -0.064,0.04 -0.064,0.148 0,0.244 0.064,0.09 0.173,0.136 0.2258,0.09 0.064,-0.05 0.064,-0.161 0,-0.256 -0.056,-0.09 -0.1612,-0.136 -0.2258,-0.08 z" style="transform: none; transform-origin: 6.4435px 16.9548px 0px;" transform-origin="6.443499565124512px 16.9548282623291px"></path> <path d="m 6.7903,17.40 c -0.064,0.05 -0.040,0.17 0.052,0.256 0.092,0.09 0.2096,0.107 0.2620,0.04 0.052,-0.05 0.028,-0.17 -0.052,-0.256 -0.08,-0.09 -0.2096,-0.107 -0.2620,-0.04 z" style="transform: none; transform-origin: 6.9431px 17.548px 0px;" transform-origin="6.943104267120361px 17.54800033569336px"></path> <path d="m 7.4354,17.917 c -0.028,0.08 0.052,0.177 0.1733,0.202 0.1048,0.04 0.2258,0 0.25,-0.08 0.024,-0.08 -0.052,-0.17 -0.1733,-0.21 -0.1048,-0.02 -0.2217,0.01 -0.25,0.09 z" style="transform: none; transform-origin: 7.64646px 17.9788px 0px;" transform-origin="7.646460056304932px 17.978845596313477px"></path> <path d="m 8.6895,18.10 c 0,0.08 -0.092,0.148 -0.2096,0.148 -0.1330,0.01 -0.2258,-0.05 -0.2258,-0.148 0,-0.08 0.092,-0.148 0.2096,-0.148 0.1209,-0.01 0.2258,0.05 0.2258,0.148 z" style="transform: none; transform-origin: 8.4718px 18.1px 0px;" transform-origin="8.471799850463867px 18.100000381469727px"></path> <path d="m 9.217,17.847 c -0.1169,0.02 -0.1975,0.107 -0.1854,0.202 0.012,0.08 0.1169,0.136 0.2379,0.107 0.1169,-0.02 0.1975,-0.107 0.1854,-0.190 -0.012,-0.07 -0.1209,-0.132 -0.2379,-0.119 z" </path></g></svg>