<?xml version="1.0" encoding="UTF-8" standalone="no"?>
<!-- Created with Inkscape (http://www.inkscape.org/) -->

<svg
   width="91"
   height="24"
   viewBox="0 0 91 24"
   version="1.1"
   id="svg5"
   xmlns="http://www.w3.org/2000/svg"
   xmlns:svg="http://www.w3.org/2000/svg">
  <defs
     id="defs2" />
  <g
     id="layer1">
    <path
       id="path1"
       d="m 32.839897,2.9785156 c -0.550659,0.014282 -1.100924,0.071667 -1.642578,0.171875 -2.706,0.494 -4.916891,1.8823125 -6.587891,4.0703125 -1.553,2.024 -2.306,4.3295309 -2,6.8945309 0.259,2.165 1.247282,3.90661 2.988282,5.22461 1.882999,1.411 4.024078,1.858734 6.330078,1.552734 2.8,-0.376 5.012031,-1.764 6.707031,-4 0.678,-0.894 1.56425,-2.246062 1.906249,-3.289062 12.441043,2.45e-4 25.132063,0.01937 37.573107,0.0117 -0.264335,-1.271744 -0.24606,-2.166862 -0.0098,-3.230468 L 32.1231,10.375048 c -0.343,0.007 -0.497312,0.237 -0.570312,0.375 -0.326,0.613 -0.779985,1.418438 -1.083985,2.148438 -0.167,0.4 -0.05164,0.705078 0.44336,0.705078 h 4.544921 c -0.159999,0.634 -0.541906,1.029062 -0.753906,1.289062 -1.06,1.2 -2.4,1.764734 -4,1.552734 -1.86,-0.259 -3.152781,-1.813312 -3.175781,-3.695312 -0.024,-1.906 0.801391,-3.4347031 2.400391,-4.4707031 0.547,-0.354 3.165547,-1.8539219 5.185546,0.4550781 0.308,0.352 0.329594,0.3283281 0.683594,0.2363281 1.458,-0.378 2.470125,-0.6601562 3.953125,-1.0351562 0.282,-0.071 0.341375,-0.1703907 0.234375,-0.4003907 -0.624,-1.349 -1.301828,-2.4084218 -2.548828,-3.2324218 -1.43,-0.97 -2.977703,-1.3602188 -4.595703,-1.3242188 z"
       style="fill:#7593ff;fill-opacity:1" />
    <path
       fill="#d7dbee"
       d="m 46.987335,21 h -3.71 l 2.283,-15.2022175 c 0.15,-0.927 0.51,-1.626 1.078,-2.099 0.584,-0.472 1.303,-0.708 2.155,-0.708 0.752,0 1.42,0.193 2.005,0.577 0.585,0.368 0.978,0.97 1.179,1.81 l 2.832,11.0149995 c 0.032,0.126 0.052,0.09 0.075,0 l 2.781,-10.9349995 c 0.218,-0.857 0.627,-1.478 1.229,-1.862 0.600019,-0.4019826 1.307824,-0.6125807 2.03,-0.604 0.836,0 1.537,0.245 2.106,0.735 0.568,0.49 0.91,1.206 1.027,2.15 L 66.137335,21 h -3.709 l -1.63,-13.8642175 c -0.044,-0.312 -0.195,-0.312 -0.275,-0.052 l -3.133,10.9069995 c -0.184,0.664 -0.51,1.178218 -0.978,1.511218 -0.451,0.332 -0.977,0.498 -1.579,0.498 -0.561731,0.0022 -1.111529,-0.162029 -1.58,-0.472 -0.484,-0.315 -0.801,-0.812218 -0.952,-1.459218 l -3.133,-10.9849995 c -0.065,-0.245 -0.24,-0.236 -0.276,0.026 C 48.258335,11.734782 46.987335,21 46.987335,21 Z"
       id="path2" />
    <path
       fill="#d7dbee"
       d="m 61.179335,10.374782 0.383,3.244 c 1.208,0 2.4,0.003 3.563,0.004 l -0.45,-3.248 z"
       id="path3" />
    <path
       fill="#6c88f4"
       d="m 55.523022,10.379976 -0.0021,3.230006 3.991527,-7.59e-4 0.257874,-3.228303 z"
       id="path4"
       style="fill:#7593ff;fill-opacity:1" />
    <path
       fill="#d7dbee"
       d="m 50.107804,10.377772 0.920683,3.228124 3.067954,0.0141 -0.833,-3.238 z"
       id="path5" />
    <path
       fill="#6c88f4"
       d="m 43.543388,10.382909 -7.73e-4,3.221009 5.337873,0.0021 0.0017,-3.227434 z"
       id="path6"
       style="fill:#7593ff;fill-opacity:1" />
    <path
       fill="#d7dbee"
       d="M 7.9049031,21 H 4 V 3 h 3.9049031 v 6.2596582 c 2e-7,0.6154732 0.4989398,1.1144128 1.114413,1.1144128 h 5.9821699 c 0.615473,0 1.114413,-0.4989396 1.114413,-1.1144128 V 3 h 3.904904 v 18 h -3.904904 v -6.256315 c 0,-0.615473 -0.49894,-1.114413 -1.114413,-1.114413 H 9.0193161 c -0.6154733,0 -1.1144129,0.49894 -1.114413,1.114413 z"
       id="path7"
       style="stroke-width:1.11442" />
    <path
       fill="#d7dbee"
       d="m 69.116534,21 h 4.363 c 1.031,-2.07 2.111,-4.118 3.106,-6.205 0.96,-2.118 0.674,-4.64 -0.492,-6.6160002 l -2.69,-5.179 h -4.287 c 1.348,2.47 2.742,4.918 4.059,7.4050002 0.568,1.007 0.457,2.261 -0.142,3.227 -1.324,2.445 -2.609,4.913 -3.917,7.368 z"
       id="path8" />
    <path
       id="path9"
       d="m 55.288079,5.7128906 c -0.2,0 -0.484406,0.12125 -0.566406,0.28125 l -0.634765,1.2363282 c -0.083,0.16 0.03047,0.3554687 0.230468,0.3554687 l 24.507738,0.00195 1.06947,-1.875 z M 68.056694,16.587891 c -0.2,-10e-7 -0.483406,0.12125 -0.566406,0.28125 l -0.632813,1.236328 c -0.083,0.16 0.02852,0.355468 0.228516,0.355469 l 12.859375,0.002 -0.995252,-1.875 z"
       style="fill:#7593ff;fill-opacity:1" />
    <path
       fill="#d7dbee"
       d="m 87.022097,20.996138 h -4.363 c -1.031,-2.07 -2.111,-4.118 -3.106,-6.205 -0.96,-2.118 -0.674,-4.64 0.492,-6.6160007 l 2.69,-5.179 h 4.287 c -1.349,2.47 -2.742,4.918 -4.059,7.4050007 -0.569,1.007 -0.458,2.261 0.142,3.227 1.324,2.445 2.609,4.913 3.917,7.368 z"
       id="path10" />
  </g>
</svg>
